<svg width="32" height="32" viewBox="0 0 32 32" fill="none" xmlns="http://www.w3.org/2000/svg">
<path d="M16 10.6094C13 10.6094 10.6094 13.0469 10.6094 16C10.6094 19 13 21.3906 16 21.3906C18.9531 21.3906 21.3906 19 21.3906 16C21.3906 13.0469 18.9531 10.6094 16 10.6094ZM16 19.5156C14.0781 19.5156 12.4844 17.9688 12.4844 16C12.4844 14.0781 14.0312 12.5312 16 12.5312C17.9219 12.5312 19.4688 14.0781 19.4688 16C19.4688 17.9688 17.9219 19.5156 16 19.5156ZM22.8438 10.4219C22.8438 9.71875 22.2812 9.15625 21.5781 9.15625C20.875 9.15625 20.3125 9.71875 20.3125 10.4219C20.3125 11.125 20.875 11.6875 21.5781 11.6875C22.2812 11.6875 22.8438 11.125 22.8438 10.4219ZM26.4062 11.6875C26.3125 10 25.9375 8.5 24.7188 7.28125C23.5 6.0625 22 5.6875 20.3125 5.59375C18.5781 5.5 13.375 5.5 11.6406 5.59375C9.95312 5.6875 8.5 6.0625 7.23438 7.28125C6.01562 8.5 5.64062 10 5.54688 11.6875C5.45312 13.4219 5.45312 18.625 5.54688 20.3594C5.64062 22.0469 6.01562 23.5 7.23438 24.7656C8.5 25.9844 9.95312 26.3594 11.6406 26.4531C13.375 26.5469 18.5781 26.5469 20.3125 26.4531C22 26.3594 23.5 25.9844 24.7188 24.7656C25.9375 23.5 26.3125 22.0469 26.4062 20.3594C26.5 18.625 26.5 13.4219 26.4062 11.6875ZM24.1562 22.1875C23.8281 23.125 23.0781 23.8281 22.1875 24.2031C20.7812 24.7656 17.5 24.625 16 24.625C14.4531 24.625 11.1719 24.7656 9.8125 24.2031C8.875 23.8281 8.17188 23.125 7.79688 22.1875C7.23438 20.8281 7.375 17.5469 7.375 16C7.375 14.5 7.23438 11.2188 7.79688 9.8125C8.17188 8.92188 8.875 8.21875 9.8125 7.84375C11.1719 7.28125 14.4531 7.42188 16 7.42188C17.5 7.42188 20.7812 7.28125 22.1875 7.84375C23.0781 8.17188 23.7812 8.92188 24.1562 9.8125C24.7188 11.2188 24.5781 14.5 24.5781 16C24.5781 17.5469 24.7188 20.8281 24.1562 22.1875Z" fill="#D0D0D0"/>
</svg>
