<svg width="76" height="14" viewBox="0 0 76 14" fill="none" xmlns="http://www.w3.org/2000/svg">
<path d="M2.824 1.16H0.232V13H7.496V10.6H2.824V1.16ZM12.3744 13.208C14.5664 13.208 16.1504 12.072 16.4384 10.296H14.1824C14.0064 10.872 13.3504 11.208 12.4224 11.208C11.3344 11.208 10.7424 10.712 10.5984 9.656L16.4064 9.624V9C16.4064 6.392 14.8384 4.744 12.3264 4.744C9.91038 4.744 8.23038 6.488 8.23038 8.984C8.23038 11.448 9.95838 13.208 12.3744 13.208ZM12.3424 6.744C13.3344 6.744 13.9584 7.288 13.9584 8.136H10.6304C10.8224 7.176 11.3664 6.744 12.3424 6.744ZM21.0194 13V7.048H22.5394V5H21.0194V2.52H18.5554V5H17.0354V7.048H18.5554V13H21.0194ZM23.0708 10.472C23.0708 12.088 24.3988 13.208 26.5108 13.208C28.5908 13.208 30.0468 12.168 30.0468 10.456C30.0468 9.176 29.3268 8.568 28.0148 8.28L26.5268 7.96C25.9668 7.832 25.6628 7.624 25.6628 7.256C25.6628 6.824 26.0148 6.536 26.5748 6.536C27.1668 6.536 27.5028 6.904 27.5028 7.448H29.8388C29.8388 5.832 28.5428 4.744 26.6868 4.744C24.7668 4.744 23.3428 5.704 23.3428 7.368C23.3428 8.776 24.0628 9.416 25.5348 9.736L27.0068 10.056C27.5988 10.184 27.7268 10.44 27.7268 10.68C27.7268 11.096 27.3748 11.368 26.6068 11.368C25.8548 11.368 25.4388 11.032 25.4068 10.472H23.0708ZM34.9926 10.472C34.9926 12.088 36.3206 13.208 38.4326 13.208C40.5126 13.208 41.9686 12.168 41.9686 10.456C41.9686 9.176 41.2486 8.568 39.9366 8.28L38.4486 7.96C37.8886 7.832 37.5846 7.624 37.5846 7.256C37.5846 6.824 37.9366 6.536 38.4966 6.536C39.0886 6.536 39.4246 6.904 39.4246 7.448H41.7606C41.7606 5.832 40.4646 4.744 38.6086 4.744C36.6886 4.744 35.2646 5.704 35.2646 7.368C35.2646 8.776 35.9846 9.416 37.4566 9.736L38.9286 10.056C39.5206 10.184 39.6486 10.44 39.6486 10.68C39.6486 11.096 39.2966 11.368 38.5286 11.368C37.7766 11.368 37.3606 11.032 37.3286 10.472H34.9926ZM42.8241 8.968C42.8241 11.528 44.4561 13.208 46.9841 13.208C49.2241 13.208 50.8561 11.832 51.0161 9.816H48.5361C48.3761 10.6 47.8481 11 46.9841 11C45.9281 11 45.3041 10.248 45.3041 8.968C45.3041 7.736 45.9761 6.952 47.0161 6.952C47.8641 6.952 48.3601 7.336 48.5361 8.136H51.0161C50.8561 6.04 49.2881 4.744 46.9201 4.744C44.5201 4.744 42.8241 6.504 42.8241 8.968ZM57.8695 5C57.5335 4.92 57.2135 4.888 56.9255 4.888C55.8535 4.888 55.1495 5.416 54.8135 6.2L54.6855 5.016H52.3655V13H54.8295V9.528C54.8295 7.944 55.6775 7.32 57.0855 7.32H57.8695V5ZM58.4491 8.984C58.4491 11.512 60.3051 13.192 62.8651 13.192C65.4091 13.192 67.2651 11.512 67.2651 8.984C67.2651 6.456 65.4091 4.76 62.8651 4.76C60.3051 4.76 58.4491 6.456 58.4491 8.984ZM60.9291 8.968C60.9291 7.768 61.7131 6.968 62.8651 6.968C64.0011 6.968 64.7851 7.768 64.7851 8.968C64.7851 10.184 64.0011 10.984 62.8651 10.984C61.7131 10.984 60.9291 10.184 60.9291 8.968ZM71.1576 13V0.936H68.6936V13H71.1576ZM75.4701 13V0.936H73.0061V13H75.4701Z" fill="#0B24F5"/>
</svg>
