<svg width="1575" height="2443" viewBox="0 0 1575 2443" fill="none" xmlns="http://www.w3.org/2000/svg">
<path 
    d="M22 78.9855C22 78.9855 291.593 281.689 373.074 304.826C454.555 327.963 531.51 342.047 581.304 327.963C631.098 313.88 718.615 221.331 713.083 151.919C707.55 82.5065 654.235 25.1662 581.304 37.7408C508.373 50.3155 503.344 100.614 508.373 151.919C513.403 203.223 567.221 356.634 699 347.58C830.778 338.526 851.903 156.949 957.024 169.523C1062.14 182.098 1092.32 308.347 1188.39 327.963C1284.46 347.58 1259.81 280.18 1395.11 313.88C1530.41 347.58 1533.93 560.846 1498.22 625.228C1462.51 689.61 1307.59 812.339 1304.07 913.942C1300.55 1015.54 1456.98 1068.36 1498.22 1116.64C1539.46 1164.93 1557.07 1208.19 1514.32 1275.59C1291.64 1626.63 1046.08 1434.49 738.231 1480.3C437.454 1525.07 486.745 1713.69 331.83 1727.77C176.915 1741.86 154.784 1815.29 211.117 1875.65C267.45 1936.01 563.197 1919.91 572.251 2012.46C581.304 2105.01 507.87 2105.51 351.446 2172.91C195.022 2240.31 211.117 2440 211.117 2440" stroke="#FEBFCB" stroke-width="70"/>
</svg>
