<svg width="1261" height="1060" viewBox="0 0 1261 1060" fill="none" xmlns="http://www.w3.org/2000/svg">
<g clip-path="url(#clip0_1083_516)">
<path d="M1317.9 0C1259.9 32.9 1220.1 69.8 1195.3 96.4C1158.6 135.8 1116.2 181.2 1100.5 253.3C1092.4 290.2 1082.3 336.6 1105 379.9C1135.8 438.5 1199.8 439.4 1213.1 499.1C1214.6 505.7 1220.2 531.2 1206.6 550.9C1185.1 582.2 1130 577.1 1116.7 575.8C1000.4 565 967.8 450.8 903.4 464.4C856.4 474.3 817.9 546.8 834.6 590.6C842.6 611.6 862.2 622.7 873.7 629.3C928.1 660.3 972 631.3 1001.2 656.6C1028.6 680.4 1019.8 731.5 1018.3 739.7C1003.8 824.2 916.3 827.6 866 903.9C832.6 954.6 823.4 1025.7 833.6 1098" stroke="#FEBFCB" stroke-width="47"/>
</g>
<defs>
<clipPath id="clip0_1083_516">
<rect width="1261" height="1060" fill="white"/>
</clipPath>
</defs>
</svg>
