<svg width="1261" height="2616" viewBox="0 0 1261 2616" fill="none" xmlns="http://www.w3.org/2000/svg">
<g clip-path="url(#clip0_1079_514)">
<path d="M1317.9 0C1259.9 32.9 1220.1 69.8 1195.3 96.4C1158.6 135.8 1116.2 181.2 1100.5 253.3C1092.4 290.2 1082.3 336.6 1105 379.9C1135.8 438.5 1199.8 439.4 1213.1 499.1C1214.6 505.7 1220.2 531.2 1206.6 550.9C1185.1 582.2 1130 577.1 1116.7 575.8C1000.4 565 967.8 450.8 903.4 464.4C856.4 474.3 817.9 546.8 834.6 590.6C842.6 611.6 862.2 622.7 873.7 629.3C928.1 660.3 972 631.3 1001.2 656.6C1028.6 680.4 1019.8 731.5 1018.3 739.7C1003.8 824.2 916.3 827.6 866 903.9C792.4 1015.5 836.6 1225.4 944.5 1331.1C999.4 1384.9 1048.6 1389.9 1057.8 1440.1C1071.9 1516.5 966.6 1551.9 970.6 1636.3C975 1730.3 1108.5 1743.8 1123.2 1849.9C1124.3 1857.8 1124.7 1865.4 1124.8 1866C1127.2 1917.4 1104.7 1959.4 1075.2 2004C1054.6 2035.2 1039.3 2054.5 1027.6 2067.9C1004.2 2094.7 1002.7 2094.7 995.8 2104.5C965.2 2148.6 965.7 2229.9 1005.1 2274C1039 2312 1076.9 2294.6 1100 2332.2C1119.4 2363.7 1115.6 2413.1 1091.3 2441.2C1061.7 2475.4 1026.3 2449.3 963.9 2479.4C901.7 2509.4 912.2 2547.2 840.7 2582.8C805.8 2600.2 796.8 2594.4 749.2 2615.5C704.8 2635.2 671.8 2658.2 651.1 2674.3" stroke="#FEBFCB" stroke-width="47"/>
</g>
<defs>
<clipPath id="clip0_1079_514">
<rect width="1261" height="2615.4" fill="white"/>
</clipPath>
</defs>
</svg>
