<svg width="1579" height="3931" viewBox="0 0 1579 3931" fill="none" xmlns="http://www.w3.org/2000/svg">
<g clip-path="url(#clip0_1070_475)">
<path d="M40.1 -33.4004C42.1 -30.3004 44.1 -27.2004 45.9 -24.0004C88.4 49.9996 58.5 123.6 132.7 198.4C178.1 244.1 260.9 284.1 348.9 282.7C430.5 281.4 467 230.1 534.6 253.8C538.6 255.2 582.4 271.2 605.6 313.8C639.8 376.7 590.8 427.7 623.6 474C647.3 507.6 701.6 521.4 741.3 510C804.3 491.8 803.6 420.8 854.1 413.5C903.1 406.5 969.5 460.5 976.7 526.3C981.1 566.1 963.8 610.1 930.9 635.8C869 684.2 799.7 630.4 746.2 676.7C711 707.1 700.4 765.5 716.8 812.4C735.1 864.8 787.5 903.8 834.5 900.7C875.5 898 882.4 865.2 952.2 810.8C1006.3 768.6 1077.3 712.2 1143.5 730.7C1182.9 741.7 1216 777.9 1225.2 817.3C1233.8 854.1 1218.5 884.4 1194.4 930.9C1145.3 1025.6 1102.6 1032.8 1081.9 1109.9C1069.1 1157.6 1076.1 1189.9 1079.7 1203.1C1087.1 1230.4 1100.5 1250.2 1109.9 1261.9C1109.9 1261.9 1111.3 1264 1112.8 1266.2C1174.5 1356.2 1263.6 1391 1263.6 1391C1325.5 1415.1 1443.8 1432.4 1481.6 1373.6C1507.3 1333.5 1494 1260.7 1455.4 1242.8C1415.8 1224.4 1360 1268.8 1333.3 1303.8C1282.3 1370.9 1280.5 1479.2 1324.6 1556.6C1373 1641.5 1416 1638 1472.8 1717.9C1553.9 1832 1556.6 1995.6 1511 2119.3C1505.2 2135.1 1436.2 2313 1266.8 2383.9C1148.7 2433.3 1063.1 2397.3 988.9 2476.8C979.9 2486.4 933.4 2536.3 930.5 2606.4C926.2 2712.1 1025.8 2747.6 1013.3 2831.5C1003.9 2894.4 936.8 2949.6 873.7 2962.4C774.6 2982.5 727.6 2889.5 651.8 2914.2C578.9 2937.9 521.3 3056.7 557.1 3150.4C578.9 3207.3 633.9 3252 694.6 3263.3C815 3285.8 872.9 3161.1 979.2 3187C1046.1 3203.3 1107.2 3271.2 1111.5 3346.1C1115.3 3412.7 1073.6 3473 1025.3 3503C974.9 3534.3 937.9 3519.7 782.7 3510.3C558.2 3496.7 499.3 3518.9 462.5 3539.2C433.4 3555.3 411.3 3577.1 367 3620.6C237.2 3748.4 224.4 3819.1 166.5 3860.3C107.9 3902 -6.2 3920.1 -252 3794.9" stroke="#FEBFCB" stroke-width="50"/>
</g>
<defs>
<clipPath id="clip0_1070_475">
<rect width="1578.8" height="3930.1" fill="white"/>
</clipPath>
</defs>
</svg>
