<svg width="1247" height="1013" viewBox="0 0 1247 1013" fill="none" xmlns="http://www.w3.org/2000/svg">
<g clip-path="url(#clip0_1070_471)">
<path d="M164.8 -15.9004C166.5 -13.3004 168.2 -10.6004 169.8 -7.90039C206.3 55.4996 180.6 118.7 244.3 182.8C283.3 222 354.2 256.3 429.7 255.1C499.7 254 531 210 588.9 230.3C592.3 231.5 629.9 245.3 649.7 281.7C679.1 335.6 637 379.3 665.1 419.1C685.5 448 732 459.8 766.1 450C820.1 434.4 819.5 373.5 862.8 367.3C904.8 361.3 961.7 407.6 967.9 464C971.6 498.1 956.9 535.8 928.6 557.9C875.5 599.4 816.1 553.3 770.2 592.9C740 619.1 731 669.2 745 709.4C760.7 754.3 805.6 787.8 845.9 785.1C881.1 782.8 887 754.7 946.8 708C993.2 671.8 1054.1 623.5 1110.8 639.3C1144.6 648.7 1172.9 679.8 1180.9 713.6C1190.4 754.2 1168.2 789.3 1154.5 811C1113 876.6 1064.8 874.2 1043.5 922.4C1033.4 945.3 1027.8 982.8 1056.1 1044.4C1064.7 1061.2 1073.3 1078 1082 1094.8" stroke="#FEBFCB" stroke-width="56"/>
</g>
<defs>
<clipPath id="clip0_1070_471">
<rect width="1247" height="1012.7" fill="white"/>
</clipPath>
</defs>
</svg>
